<?xml version="1.0" encoding="UTF-8"?>
<svg width="32px" height="23px" viewBox="0 0 32 23" version="1.1" xmlns="http://www.w3.org/2000/svg" xmlns:xlink="http://www.w3.org/1999/xlink">
    <!-- Generator: Sketch 62 (91390) - https://sketch.com -->
    <title>laptop_chromebook-24px@SVG</title>
    <desc>Created with Sketch.</desc>
    <g id="Website" stroke="none" stroke-width="1" fill="none" fill-rule="evenodd">
        <g id="Group-10" transform="translate(-2877.000000, -29.000000)" fill="#EB0098" fill-rule="nonzero">
            <g id="Group-8" transform="translate(1689.000000, 0.000000)">
                <g id="Group-6" transform="translate(1124.000000, 0.000000)">
                    <g id="Group-5" transform="translate(40.000000, 0.000000)">
                        <g id="laptop_chromebook-24px" transform="translate(24.000000, 29.000000)">
                            <path d="M30.6666667,20 L29.3333333,20 L29.3333333,2.66666667 C29.3333333,1.2 28.1333333,0 26.6666667,0 L5.33333333,0 C3.86666667,0 2.66666667,1.2 2.66666667,2.66666667 L2.66666667,20 L1.33333333,20 C0.6,20 0,20.6 0,21.3333333 C0,22.0666667 0.6,22.6666667 1.33333333,22.6666667 L30.6666667,22.6666667 C31.4,22.6666667 32,22.0666667 32,21.3333333 C32,20.6 31.4,20 30.6666667,20 Z M18,20 L14,20 C13.6266667,20 13.3333333,19.7066667 13.3333333,19.3333333 C13.3333333,18.96 13.6266667,18.6666667 14,18.6666667 L18,18.6666667 C18.3733333,18.6666667 18.6666667,18.96 18.6666667,19.3333333 C18.6666667,19.7066667 18.3733333,20 18,20 Z M26.6666667,16 L5.33333333,16 L5.33333333,4 C5.33333333,3.26666667 5.93333333,2.66666667 6.66666667,2.66666667 L25.3333333,2.66666667 C26.0666667,2.66666667 26.6666667,3.26666667 26.6666667,4 L26.6666667,16 Z" id="Shape"></path>
                        </g>
                    </g>
                </g>
            </g>
        </g>
    </g>
</svg>