<?xml version="1.0" encoding="UTF-8"?>
<svg width="14px" height="24px" viewBox="0 0 14 24" version="1.1" xmlns="http://www.w3.org/2000/svg" xmlns:xlink="http://www.w3.org/1999/xlink">
    <!-- Generator: Sketch 62 (91390) - https://sketch.com -->
    <title>attach_money-24px@SVG</title>
    <desc>Created with Sketch.</desc>
    <g id="Website" stroke="none" stroke-width="1" fill="none" fill-rule="evenodd">
        <g id="Group-10" transform="translate(-2323.000000, -28.000000)">
            <g id="Group-8" transform="translate(1689.000000, 0.000000)">
                <g id="Group-7">
                    <g id="Group-6" transform="translate(562.000000, 0.000000)">
                        <g id="Group-5" transform="translate(40.000000, 0.000000)">
                            <g id="attach_money-24px" transform="translate(24.000000, 24.000000)">
                                <polygon id="Path" points="0 0 32 0 32 32 0 32"></polygon>
                                <path d="M15.7333333,14.5333333 C12.7066667,13.7466667 11.7333333,12.9333333 11.7333333,11.6666667 C11.7333333,10.2133333 13.08,9.2 15.3333333,9.2 C17.2266667,9.2 18.1733333,9.92 18.52,11.0666667 C18.68,11.6 19.12,12 19.68,12 L20.08,12 C20.96,12 21.5866667,11.1333333 21.28,10.3066667 C20.72,8.73333333 19.4133333,7.42666667 17.3333333,6.92 L17.3333333,6 C17.3333333,4.89333333 16.44,4 15.3333333,4 C14.2266667,4 13.3333333,4.89333333 13.3333333,6 L13.3333333,6.88 C10.7466667,7.44 8.66666667,9.12 8.66666667,11.6933333 C8.66666667,14.7733333 11.2133333,16.3066667 14.9333333,17.2 C18.2666667,18 18.9333333,19.1733333 18.9333333,20.4133333 C18.9333333,21.3333333 18.28,22.8 15.3333333,22.8 C13.1333333,22.8 12,22.0133333 11.56,20.8933333 C11.36,20.3733333 10.9066667,20 10.36,20 L9.98666667,20 C9.09333333,20 8.46666667,20.9066667 8.8,21.7333333 C9.56,23.5866667 11.3333333,24.68 13.3333333,25.1066667 L13.3333333,26 C13.3333333,27.1066667 14.2266667,28 15.3333333,28 C16.44,28 17.3333333,27.1066667 17.3333333,26 L17.3333333,25.1333333 C19.9333333,24.64 22,23.1333333 22,20.4 C22,16.6133333 18.76,15.32 15.7333333,14.5333333 Z" id="Path" fill="#00AF81" fill-rule="nonzero"></path>
                            </g>
                        </g>
                    </g>
                </g>
            </g>
        </g>
    </g>
</svg>