<?xml version="1.0" encoding="UTF-8"?>
<svg width="21px" height="24px" viewBox="0 0 21 24" version="1.1" xmlns="http://www.w3.org/2000/svg" xmlns:xlink="http://www.w3.org/1999/xlink">
    <!-- Generator: Sketch 62 (91390) - https://sketch.com -->
    <title>Discord-Logo-Color@SVG</title>
    <desc>Created with Sketch.</desc>
    <g id="Website" stroke="none" stroke-width="1" fill="none" fill-rule="evenodd">
        <g id="Landing-Page" transform="translate(-768.000000, -2704.000000)" fill="#7289DA" fill-rule="nonzero">
            <g id="Group-13" transform="translate(547.000000, 2688.000000)">
                <g id="Group-2">
                    <g id="Discord-Logo-Color" transform="translate(221.000000, 16.000000)">
                        <path d="M8.3061902,10.2222222 C7.63835188,10.2222222 7.11111111,10.8228228 7.11111111,11.5555556 C7.11111111,12.2882883 7.65006835,12.8888889 8.3061902,12.8888889 C8.97402851,12.8888889 9.50126928,12.2882883 9.50126928,11.5555556 C9.51298574,10.8228228 8.97402851,10.2222222 8.3061902,10.2222222 Z M12.5826987,10.2222222 C11.9148604,10.2222222 11.3876196,10.8228228 11.3876196,11.5555556 C11.3876196,12.2882883 11.9265768,12.8888889 12.5826987,12.8888889 C13.250537,12.8888889 13.7777778,12.2882883 13.7777778,11.5555556 C13.7777778,10.8228228 13.250537,10.2222222 12.5826987,10.2222222 Z" id="Shape"></path>
                        <path d="M18.4419048,0 L2.44698413,0 C1.09815873,0 0,1.104 0,2.472 L0,18.696 C0,20.064 1.09815873,21.168 2.44698413,21.168 L15.9829841,21.168 L15.3503492,18.948 L16.8782222,20.376 L18.3225397,21.72 L20.8888889,24 L20.8888889,2.472 C20.8888889,1.104 19.7907302,0 18.4419048,0 Z M13.8344127,15.672 C13.8344127,15.672 13.4046984,15.156 13.0466032,14.7 C14.6102857,14.256 15.2071111,13.272 15.2071111,13.272 C14.7177143,13.596 14.2521905,13.824 13.8344127,13.98 C13.2375873,14.232 12.6646349,14.4 12.103619,14.496 C10.9577143,14.712 9.90730159,14.652 9.01206349,14.484 C8.33168254,14.352 7.74679365,14.16 7.25739683,13.968 C6.98285714,13.86 6.68444444,13.728 6.38603175,13.56 C6.35022222,13.536 6.3144127,13.524 6.27860317,13.5 C6.25473016,13.488 6.24279365,13.476 6.23085714,13.464 C6.016,13.344 5.89663492,13.26 5.89663492,13.26 C5.89663492,13.26 6.4695873,14.22 7.98552381,14.676 C7.62742857,15.132 7.18577778,15.672 7.18577778,15.672 C4.54780952,15.588 3.54514286,13.848 3.54514286,13.848 C3.54514286,9.984 5.264,6.852 5.264,6.852 C6.98285714,5.556 8.61815873,5.59190028 8.61815873,5.59190028 L8.73752381,5.736 C6.58895238,6.36 5.59822222,7.308 5.59822222,7.308 C5.59822222,7.308 5.8608254,7.164 6.30247619,6.96 C7.57968254,6.396 8.59428571,6.24 9.01206349,6.204 C9.08368254,6.192 9.14336508,6.18 9.21498413,6.18 C9.94311111,6.084 10.7667302,6.06 11.6261587,6.156 C12.760127,6.288 13.9776508,6.624 15.2190476,7.308 C15.2190476,7.308 14.2760635,6.408 12.2468571,5.784 L12.4139683,5.59190028 C12.4139683,5.59190028 14.0492698,5.556 15.768127,6.852 C15.768127,6.852 17.4869841,9.984 17.4869841,13.848 C17.4869841,13.848 16.472381,15.588 13.8344127,15.672 L13.8344127,15.672 Z" id="Shape"></path>
                    </g>
                </g>
            </g>
        </g>
    </g>
</svg>