<?xml version="1.0" encoding="UTF-8"?>
<svg width="28px" height="22px" viewBox="0 0 28 22" version="1.1" xmlns="http://www.w3.org/2000/svg" xmlns:xlink="http://www.w3.org/1999/xlink">
    <!-- Generator: Sketch 62 (91390) - https://sketch.com -->
    <title>speed-24px@SVG</title>
    <desc>Created with Sketch.</desc>
    <g id="Website" stroke="none" stroke-width="1" fill="none" fill-rule="evenodd">
        <g id="Group-10" transform="translate(-66.000000, -29.000000)">
            <g id="Group-9">
                <g id="Group-6">
                    <g id="Group-5" transform="translate(40.000000, 0.000000)">
                        <g id="speed-24px" transform="translate(24.000000, 24.000000)">
                            <polygon id="Path" points="0 0 32 0 32 32 0 32"></polygon>
                            <path d="M26.0532694,12.9635743 C25.7827301,13.3535216 25.7467508,13.8548354 25.9589515,14.2777411 C26.2933682,15.0389941 26.5287478,15.8380894 26.6595986,16.656383 C27.0064424,18.7723774 26.682057,20.9412197 25.7298938,22.872392 C25.4942074,23.3041293 25.032185,23.5724804 24.5307094,23.5689004 L7.4861225,23.5689004 C6.9817149,23.5699237 6.51896503,23.2960788 6.28693813,22.8592503 C4.52956586,19.3821413 4.87665905,15.2439252 7.19007398,12.0916194 C9.5034889,8.9393137 13.4077972,7.28448457 17.3490772,7.78575707 C18.3278071,7.89795704 19.2851209,8.14576456 20.1920873,8.52169048 C20.6256871,8.72865762 21.1396775,8.69356566 21.5394855,8.42969881 C21.9565267,8.16173009 22.1873972,7.69076117 22.1393824,7.20592692 C22.0913676,6.72109268 21.7723442,6.30192852 21.3104278,6.11676523 C15.9719411,3.88411943 9.76736917,5.23956768 5.91539984,9.47995675 C2.06343051,13.7203458 1.43120005,19.8911003 4.34668475,24.7910755 C4.82515203,25.5994052 5.70725763,26.0996086 6.66420961,26.1052632 L25.3256744,26.1052632 C26.2922567,26.1089851 27.1868598,25.6075258 27.6701472,24.7910755 C29.7798949,21.2249902 30.0541943,16.9006627 28.4112162,13.1081326 C28.2021399,12.673862 27.7670409,12.3852266 27.2761131,12.3551293 C26.7851854,12.3250321 26.3164543,12.5582565 26.0532694,12.9635743 L26.0532694,12.9635743 Z" id="Path" fill="#FF9A22" fill-rule="nonzero"></path>
                            <path d="M14.2350738,16.615214 C13.5784146,17.2718732 13.32196,18.2289747 13.5623139,19.1259878 C13.8026679,20.0230009 14.5033148,20.7236479 15.4003279,20.9640019 C16.2973411,21.2043558 17.2544426,20.9479012 17.9111018,20.291242 L25.2631579,9.26315789 L14.2350738,16.615214 Z" id="Path" fill="#FF9A22" fill-rule="nonzero"></path>
                        </g>
                    </g>
                </g>
            </g>
        </g>
    </g>
</svg>