<?xml version="1.0" encoding="UTF-8"?>
<svg width="24px" height="24px" viewBox="0 0 24 24" version="1.1" xmlns="http://www.w3.org/2000/svg" xmlns:xlink="http://www.w3.org/1999/xlink">
    <!-- Generator: Sketch 62 (91390) - https://sketch.com -->
    <title>format_indent_increase-24px@SVG</title>
    <desc>Created with Sketch.</desc>
    <g id="Website" stroke="none" stroke-width="1" fill="none" fill-rule="evenodd">
        <g id="Group-10" transform="translate(-1757.000000, -28.000000)">
            <g id="Group-8" transform="translate(1689.000000, 0.000000)">
                <g id="Group-7">
                    <g id="Group-6">
                        <g id="Group-5" transform="translate(40.000000, 0.000000)">
                            <g id="format_indent_increase-24px" transform="translate(24.000000, 24.000000)">
                                <polygon id="Path" points="0 0 32 0 32 32 0 32"></polygon>
                                <path d="M5.33333333,28 L26.6666667,28 C27.4,28 28,27.4 28,26.6666667 C28,25.9333333 27.4,25.3333333 26.6666667,25.3333333 L5.33333333,25.3333333 C4.6,25.3333333 4,25.9333333 4,26.6666667 C4,27.4 4.6,28 5.33333333,28 Z M4,12.28 L4,19.7333333 C4,20.3333333 4.72,20.6266667 5.13333333,20.2 L8.85333333,16.48 C9.12,16.2133333 9.12,15.8 8.85333333,15.5333333 L5.13333333,11.8 C4.72,11.3866667 4,11.68 4,12.28 L4,12.28 Z M16,22.6666667 L26.6666667,22.6666667 C27.4,22.6666667 28,22.0666667 28,21.3333333 C28,20.6 27.4,20 26.6666667,20 L16,20 C15.2666667,20 14.6666667,20.6 14.6666667,21.3333333 C14.6666667,22.0666667 15.2666667,22.6666667 16,22.6666667 Z M4,5.33333333 C4,6.06666667 4.6,6.66666667 5.33333333,6.66666667 L26.6666667,6.66666667 C27.4,6.66666667 28,6.06666667 28,5.33333333 C28,4.6 27.4,4 26.6666667,4 L5.33333333,4 C4.6,4 4,4.6 4,5.33333333 Z M16,12 L26.6666667,12 C27.4,12 28,11.4 28,10.6666667 C28,9.93333333 27.4,9.33333333 26.6666667,9.33333333 L16,9.33333333 C15.2666667,9.33333333 14.6666667,9.93333333 14.6666667,10.6666667 C14.6666667,11.4 15.2666667,12 16,12 Z M16,17.3333333 L26.6666667,17.3333333 C27.4,17.3333333 28,16.7333333 28,16 C28,15.2666667 27.4,14.6666667 26.6666667,14.6666667 L16,14.6666667 C15.2666667,14.6666667 14.6666667,15.2666667 14.6666667,16 C14.6666667,16.7333333 15.2666667,17.3333333 16,17.3333333 Z" id="Shape" fill="#00A8B0" fill-rule="nonzero"></path>
                            </g>
                        </g>
                    </g>
                </g>
            </g>
        </g>
    </g>
</svg>