<?xml version="1.0" encoding="UTF-8"?>
<svg width="28px" height="24px" viewBox="0 0 28 24" version="1.1" xmlns="http://www.w3.org/2000/svg" xmlns:xlink="http://www.w3.org/1999/xlink">
    <!-- Generator: Sketch 62 (91390) - https://sketch.com -->
    <title>account_tree-24px@SVG</title>
    <desc>Created with Sketch.</desc>
    <g id="Website" stroke="none" stroke-width="1" fill="none" fill-rule="evenodd">
        <g id="Landing-Page" transform="translate(-505.000000, -1652.000000)">
            <g id="Group-10" transform="translate(-688.000000, 1624.000000)">
                <g id="Group-9">
                    <g id="Group-6" transform="translate(1127.000000, 0.000000)">
                        <g id="Group-5" transform="translate(40.000000, 0.000000)">
                            <g id="account_tree-24px" transform="translate(24.000000, 24.000000)">
                                <rect id="Rectangle" x="0" y="0" width="32" height="32"></rect>
                                <path d="M22.6666667,14.6666667 L26.6666667,14.6666667 C28.1466667,14.6666667 29.3333333,13.4666667 29.3333333,12 L29.3333333,6.66666667 C29.3333333,5.18666667 28.1333333,4 26.6666667,4 L22.6666667,4 C21.1866667,4 20,5.2 20,6.66666667 L20,8 L12.0133333,8 L12.0133333,6.66666667 C12.0133333,5.18666667 10.8133333,4 9.34666667,4 L5.33333333,4 C3.86666667,4 2.66666667,5.2 2.66666667,6.66666667 L2.66666667,12 C2.66666667,13.48 3.86666667,14.6666667 5.33333333,14.6666667 L9.33333333,14.6666667 C10.8133333,14.6666667 12,13.4666667 12,12 L12,10.6666667 L14.6666667,10.6666667 L14.6666667,20.0133333 C14.6666667,22.2133333 16.4533333,24 18.6533333,24 L20,24 L20,25.3333333 C20,26.8133333 21.2,28 22.6666667,28 L26.6666667,28 C28.1466667,28 29.3333333,26.8 29.3333333,25.3333333 L29.3333333,20 C29.3333333,18.52 28.1333333,17.3333333 26.6666667,17.3333333 L22.6666667,17.3333333 C21.1866667,17.3333333 20,18.5333333 20,20 L20,21.3333333 L18.6533333,21.3333333 C17.9333333,21.3333333 17.3333333,20.7333333 17.3333333,20.0133333 L17.3333333,10.6666667 L20,10.6666667 L20,12 C20,13.4666667 21.2,14.6666667 22.6666667,14.6666667 Z" id="Path" fill="#FF424C" fill-rule="nonzero"></path>
                            </g>
                        </g>
                    </g>
                </g>
            </g>
        </g>
    </g>
</svg>