<?xml version="1.0" encoding="UTF-8"?>
<svg width="207px" height="58px" viewBox="0 0 207 58" version="1.1" xmlns="http://www.w3.org/2000/svg" xmlns:xlink="http://www.w3.org/1999/xlink">
    <!-- Generator: Sketch 62 (91390) - https://sketch.com -->
    <title>Group@SVG</title>
    <desc>Created with Sketch.</desc>
    <g id="Website" stroke="none" stroke-width="1" fill="none" fill-rule="evenodd">
        <g id="Landing-Page" transform="translate(-117.000000, -249.000000)">
            <g id="Group-3" transform="translate(120.000000, 252.000000)">
                <g id="Group">
                    <path d="M80.5621521,35 L80.5621521,27.3305556 L85.8460111,27.3305556 C86.4792826,27.3305556 87.04329,27.2898148 87.5380334,27.2083333 C89.3191095,26.9027778 90.6747062,26.1185185 91.6048237,24.8555556 C92.5349412,23.5925926 93,22.0240741 93,20.15 C93,18.2555556 92.5398887,16.6819444 91.619666,15.4291667 C90.6994434,14.1763889 89.3388992,13.4074074 87.5380334,13.1222222 C87.04329,13.0407407 86.4792826,13 85.8460111,13 L85.8460111,13 L77,13 L77,35 L80.5621521,35 Z M85.2424242,24 L80,24 L80,16 L85.2424242,16 C85.7878788,16 86.2424242,16.0548697 86.6060606,16.1646091 C87.4343434,16.3840878 88.040404,16.8559671 88.4242424,17.5802469 C88.8080808,18.3045267 89,19.1056241 89,19.9835391 C89,20.861454 88.8080808,21.6680384 88.4242424,22.4032922 C88.040404,23.138546 87.4343434,23.6159122 86.6060606,23.8353909 C86.2424242,23.9451303 85.7878788,24 85.2424242,24 L85.2424242,24 Z M103.323529,36 C104.578431,36 105.651961,35.7862573 106.544118,35.3587719 C107.436275,34.9312865 108.22549,34.2701754 108.911765,33.3754386 L108.911765,33.3754386 L108.911765,35.5526316 L112,35.5526316 L112,25.6807018 C112,24.825731 111.965686,24.1248538 111.897059,23.5780702 C111.828431,23.0312865 111.666667,22.4994152 111.411765,21.9824561 C110.411765,19.994152 108.372549,19 105.294118,19 C103.470588,19 101.995098,19.3976608 100.867647,20.1929825 C99.7401961,20.9883041 98.9705882,22.0918129 98.5588235,23.5035088 L98.5588235,23.5035088 L101.823529,24.5473684 C102.058824,23.7719298 102.495098,23.2002924 103.132353,22.8324561 C103.769608,22.4646199 104.480392,22.2807018 105.264706,22.2807018 C106.343137,22.2807018 107.142157,22.4994152 107.661765,22.9368421 C108.181373,23.374269 108.470588,24.0701754 108.529412,25.0245614 C106.803922,25.2631579 105.411765,25.4769006 104.352941,25.6657895 C103.294118,25.8546784 102.382353,26.0684211 101.617647,26.3070175 C100.382353,26.7444444 99.4705882,27.3657895 98.8823529,28.1710526 C98.2941176,28.9763158 98,29.9654971 98,31.1385965 C98,32.0333333 98.2058824,32.848538 98.6176471,33.5842105 C99.0294118,34.319883 99.6372549,34.9064327 100.441176,35.3438596 C101.245098,35.7812865 102.205882,36 103.323529,36 Z M103.912134,33 C102.974895,33 102.25523,32.7816092 101.753138,32.3448276 C101.251046,31.908046 101,31.3333333 101,30.6206897 C101,30.045977 101.1841,29.5689655 101.552301,29.1896552 C101.920502,28.8103448 102.472803,28.4712644 103.209205,28.1724138 C103.7894,27.9885057 104.576011,27.7988506 105.569038,27.6034483 C106.562064,27.408046 107.705718,27.2068966 109,27 C108.95537,28.3333333 108.810321,29.2988506 108.564854,29.8965517 C108.341702,30.6781609 107.822873,31.3908046 107.008368,32.0344828 C106.193863,32.6781609 105.161785,33 103.912134,33 Z M127.071618,36 C127.920424,36 128.896552,35.8952381 130,35.6857143 L130,35.6857143 L130,32.5114286 C129.023873,32.6371429 128.344828,32.7 127.962865,32.7 C126.647215,32.7 125.755968,32.3333333 125.289125,31.6 C125.161804,31.3904762 125.071618,31.1233333 125.018568,30.7985714 C124.965517,30.4738095 124.938992,30.06 124.938992,29.5571429 L124.938992,29.5571429 L124.938992,21.6685714 L130,21.6685714 L130,18.7142857 L124.938992,18.7142857 L124.938992,14 L121.119363,14 L121.119363,18.7142857 L118,18.7142857 L118,21.6685714 L121.119363,21.6685714 L121.119363,30.0914286 C121.119363,30.8457143 121.161804,31.49 121.246684,32.0242857 C121.331565,32.5585714 121.511936,33.087619 121.787798,33.6114286 C122.233422,34.4285714 122.917772,35.0309524 123.840849,35.4185714 C124.763926,35.8061905 125.840849,36 127.071618,36 Z M139.682093,35 L139.682093,26.5055556 C139.682093,24.6722222 140.044266,23.3787037 140.768612,22.625 C141.492958,21.8712963 142.39839,21.4944444 143.484909,21.4944444 C146.040241,21.4944444 147.317907,23.3481481 147.317907,27.0555556 L147.317907,27.0555556 L147.317907,35 L151,35 L151,25.7722222 C151,23.9796296 150.572435,22.2430556 149.717304,20.5625 C148.862173,18.8819444 147.146881,18.0416667 144.571429,18.0416667 C142.277666,18.0416667 140.507042,18.8055556 139.259557,20.3333333 L139.259557,20.3333333 L139.259557,13 L136,13 L136,35 L139.682093,35 Z M161,16 L161,13 L158,13 L158,16 L161,16 Z M161,35 L161,18 L158,18 L158,35 L161,35 Z M177.88694,35 L184,18 L180.226121,18 L176.015595,30.3092593 L171.773879,18 L168,18 L174.11306,35 L177.88694,35 Z M195.41129,36 C196.560484,36 197.58871,35.8009009 198.495968,35.4027027 C199.403226,35.0045045 200.159274,34.4378378 200.764113,33.7027027 L200.764113,33.7027027 L200.764113,35.5405405 L204,35.5405405 L204,19 L200.310484,19 L200.310484,27.4846847 C200.310484,29.3225225 199.947581,30.6243243 199.221774,31.3900901 C198.495968,32.1558559 197.58871,32.5387387 196.5,32.5387387 C193.959677,32.5387387 192.689516,30.6804805 192.689516,26.963964 L192.689516,26.963964 L192.689516,19 L189,19 L189,28.2198198 C189,30.0372372 189.423387,31.7882883 190.270161,33.472973 C191.116935,35.1576577 192.830645,36 195.41129,36 Z" id="Pathivu" fill="#FFFFFF" fill-rule="nonzero"></path>
                    <g id="Group-18">
                        <path d="M13,17 C19.1842008,18.4732299 22.5060343,21.3895024 22.9655005,25.7488175 C23.6546997,32.28779 21.6866684,36.2269263 26.8953703,36.2269263 C26.8496412,40.0968654 28.4039642,42.2397321 20.9243296,47" id="Path-11" stroke="#AB6B24" stroke-width="4"></path>
                        <path d="M28,17 C34.2133341,18.4732299 37.5508165,21.3895024 38.0124472,25.7488175 C38.7048932,32.28779 36.7275906,36.2269263 41.9608303,36.2269263 C41.9148858,40.0968654 43.0323159,42.5211186 35.9616605,47" id="Path-11" stroke="#AB6B24" stroke-width="4" transform="translate(35.000000, 32.000000) scale(-1, 1) translate(-35.000000, -32.000000) "></path>
                        <path d="M0.473477108,5.38766125 C-0.587936006,-2.54824375 8.9138191,-1.00204928 13.8081479,5.38766125 C16.1662689,3.00534755 20.5033383,1.53398542 26.8193559,0.973574856 C26.8236861,0.939255781 26.8270756,0.904450001 26.8304686,0.869626433 C27.0563005,0.884472781 27.2798099,0.900388258 27.5009967,0.917372862 L27.6449003,0.906349741 L27.6449003,0.906349741 L28.1695314,0.869626433 C28.1729244,0.904450001 28.1763139,0.939255781 28.1797,0.974043773 C34.4966617,1.53398542 38.8337311,3.00534755 41.1918521,5.38766125 C46.0861809,-1.00204928 55.587936,-2.54824375 54.5265229,5.38766125 C54.2360886,7.55916131 52.903995,10.0502755 50.5302421,12.8610039 L46.6398522,10.1252214 C47.6951121,11.3288836 48.4562684,12.2408111 48.9233211,12.8610039 C55.0104534,20.9440217 56.5243829,30.4132325 53.4651098,41.2686363 C42.81145,41.3103515 34.385668,49.311434 29.0808492,51.4691838 C28.812287,51.8228098 28.5081736,52 28.1695314,52 C27.9547638,52 27.7319004,51.9801457 27.5010518,51.9421452 C27.2687484,51.9800879 27.0455489,52 26.8304686,52 C26.4918264,52 26.187713,51.8228098 25.9181285,51.4684295 C20.614332,49.311434 12.18855,41.3103515 1.53489022,41.2686363 C-1.52438292,30.4132325 -0.0104533588,20.9440217 6.0766789,12.8610039 C6.54373161,12.2408111 7.3048879,11.3288836 8.36014776,10.1252214 L8.36014776,10.1252214 L4.46975788,12.8610039 C2.09600495,10.0502755 0.763911361,7.55916131 0.473477108,5.38766125 Z" id="Combined-Shape" stroke="#FF9A22" stroke-width="5" stroke-linecap="square" stroke-linejoin="bevel"></path>
                    </g>
                </g>
            </g>
        </g>
    </g>
</svg>