<?xml version="1.0" encoding="UTF-8"?>
<svg width="26px" height="16px" viewBox="0 0 26 16" version="1.1" xmlns="http://www.w3.org/2000/svg" xmlns:xlink="http://www.w3.org/1999/xlink">
    <!-- Generator: Sketch 62 (91390) - https://sketch.com -->
    <title>code-24px@SVG</title>
    <desc>Created with Sketch.</desc>
    <g id="Website" stroke="none" stroke-width="1" fill="none" fill-rule="evenodd">
        <g id="Group-10" transform="translate(-632.000000, -32.000000)">
            <g id="Group-9">
                <g id="Group-6" transform="translate(565.000000, 0.000000)">
                    <g id="Group-5" transform="translate(40.000000, 0.000000)">
                        <g id="code-24px" transform="translate(24.000000, 24.000000)">
                            <polygon id="Path" points="0 0 32 0 32 32 0 32"></polygon>
                            <path d="M11.6,21.2 L6.4,16 L11.6,10.8 C12.12,10.28 12.12,9.45333333 11.6,8.93333333 C11.08,8.41333333 10.2533333,8.41333333 9.73333333,8.93333333 L3.61333333,15.0533333 C3.09333333,15.5733333 3.09333333,16.4133333 3.61333333,16.9333333 L9.73333333,23.0666667 C10.2533333,23.5866667 11.08,23.5866667 11.6,23.0666667 C12.12,22.5466667 12.12,21.72 11.6,21.2 L11.6,21.2 Z M20.4,21.2 L25.6,16 L20.4,10.8 C19.88,10.28 19.88,9.45333333 20.4,8.93333333 C20.92,8.41333333 21.7466667,8.41333333 22.2666667,8.93333333 L28.3866667,15.0533333 C28.9066667,15.5733333 28.9066667,16.4133333 28.3866667,16.9333333 L22.2666667,23.0666667 C21.7466667,23.5866667 20.92,23.5866667 20.4,23.0666667 C19.88,22.5466667 19.88,21.72 20.4,21.2 L20.4,21.2 Z" id="Shape" fill="#B931FF" fill-rule="nonzero"></path>
                        </g>
                    </g>
                </g>
            </g>
        </g>
    </g>
</svg>