<?xml version="1.0" encoding="UTF-8"?>
<svg width="24px" height="19px" viewBox="0 0 24 19" version="1.1" xmlns="http://www.w3.org/2000/svg" xmlns:xlink="http://www.w3.org/1999/xlink">
    <!-- Generator: Sketch 62 (91390) - https://sketch.com -->
    <title>Twitter_Logo_Blue@SVG</title>
    <desc>Created with Sketch.</desc>
    <g id="Website" stroke="none" stroke-width="1" fill="none" fill-rule="evenodd">
        <g id="Landing-Page" transform="translate(-1021.000000, -2706.000000)" fill="#1DA1F2" fill-rule="nonzero">
            <g id="Group-13" transform="translate(547.000000, 2688.000000)">
                <g id="Group-2" transform="translate(322.000000, 0.000000)">
                    <g id="Twitter_Logo_Blue" transform="translate(152.000000, 18.000000)">
                        <path d="M7.8258,18.6431 C16.3164,18.6431 20.9604,11.6087 20.9604,5.5085 C20.9604,5.3087 20.9604,5.1098 20.9469,4.9118 C21.8503482,4.25831977 22.6302199,3.44919146 23.25,2.5223 C22.4074912,2.8956216 21.5137463,3.14044578 20.5986,3.2486 C21.5622696,2.67168385 22.2835112,1.76429479 22.6281,0.6953 C21.7219417,1.23300978 20.7305815,1.61196082 19.6968,1.8158 C18.2658745,0.294254851 15.9921474,-0.0781486742 14.1505943,0.907411935 C12.3090413,1.89297254 11.3576475,3.99139316 11.8299,6.026 C8.11820616,5.83992458 4.6600282,4.08679094 2.316,1.2029 C1.09076048,3.31218025 1.7165891,6.01057353 3.7452,7.3652 C3.01056708,7.34342679 2.29195143,7.14525186 1.65,6.7874 C1.65,6.8063 1.65,6.8261 1.65,6.8459 C1.65060132,9.04333368 3.19957634,10.9359816 5.3535,11.3711 C4.67388264,11.556446 3.96082253,11.5835399 3.2691,11.4503 C3.87385314,13.3307805 5.60691711,14.6190055 7.5819,14.6561 C5.94726153,15.9407887 3.92795356,16.638195 1.8489,16.6361 C1.48161321,16.6353949 1.11468366,16.6131567 0.75,16.5695 C2.86107235,17.9242489 5.31742206,18.6428452 7.8258,18.6395" id="Path"></path>
                    </g>
                </g>
            </g>
        </g>
    </g>
</svg>